<svg width="293" height="292" viewBox="0 0 293 292" fill="none" xmlns="http://www.w3.org/2000/svg">
<g clip-path="url(#clip0_123_2)">
<path d="M147.81 291.57C72.5999 295.17 0.569894 232.55 -0.000105941 147.11C-0.540106 65.31 65.0199 0.309966 146.85 -3.37096e-05C224.08 -0.290034 296.81 66.35 291.85 155.68C287.93 226.25 225.17 293.18 147.81 291.57V291.57Z" fill="#00A551"/>
<path d="M31.4999 170.24C35.1399 168.14 37.9399 168.31 40.6899 168.02C43.3699 167.74 46.4199 167.24 46.6399 163.86C46.8999 160.02 43.5699 159.5 40.7899 159.09C35.8299 158.37 30.8799 159.02 25.6599 158.81C28.4599 158.12 31.2399 157.28 34.0799 156.78C38.2299 156.05 42.1199 154.64 45.7999 152.68C52.1199 149.31 53.3199 146.42 51.1999 139.64C49.5599 134.4 47.8599 129.17 46.0099 124.01C42.5299 114.31 42.2799 105.09 47.7899 95.76C52.4199 87.9 55.5699 79.19 61.3599 71.97C63.4899 69.31 62.3999 67.78 59.5399 66.95C55.2299 65.7 50.9299 64.42 46.5899 63.3C43.4999 62.5 42.6599 61.53 45.1499 58.73C59.8499 42.15 76.5999 28.13 97.8099 21.14C132 9.86999 165.94 8.47999 199.96 23.88C225.3 35.36 245.3 52.14 260.1 75.31C279.04 104.97 282.71 137.58 278.13 171.79C271.85 218.65 222.28 270.42 171.24 278.07C139.89 282.76 109.47 279.72 81.5399 262.99C76.9699 260.25 72.3799 257.56 67.8299 254.79C67.0299 254.3 65.7999 253.83 66.0099 252.68C66.2699 251.29 67.7099 251.28 68.7999 251.1C74.7899 250.11 80.2099 252.97 85.9499 253.71C88.4599 254.03 91.9699 256.19 93.0499 253.39C93.8799 251.23 89.8399 250.08 87.7699 249.04C70.8499 240.53 58.8799 226.91 48.3099 211.7C42.9499 203.99 40.4699 196.05 44.1199 186.84C45.3399 183.77 46.0199 180.45 46.6199 177.19C47.6099 171.85 46.1299 170.04 40.7899 169.89C38.1699 169.82 35.5299 170.09 31.4999 170.27V170.24Z" fill="black"/>
<path d="M102.91 68.5799C101.94 73.1899 103.85 77.2899 104.95 81.5699C105.58 84.0299 107.99 87.1599 105.6 88.8799C103.42 90.4499 101.71 86.5999 98.3901 85.3299C104.11 93.3299 108.78 100.89 116.76 105.49C119.94 107.32 120.38 109.47 120.07 113.26C119.28 123 116.54 132 112.19 140.74C115.5 139.2 116.68 135.99 118.78 133.59C119.62 132.63 120.39 131.1 121.87 131.39C123.65 131.74 123.61 133.57 123.92 135C125.08 140.34 122.94 145.36 121.88 150.45C123.41 150.76 123.87 149.96 124.5 149.46C125.86 148.38 127.34 146.11 129.02 147.77C130.51 149.25 128.6 151.16 127.62 152.58C123.9 157.94 120.18 163.31 113.07 164.67C111.47 164.97 109.97 165.78 109.4 168.09C114.55 169.01 118.72 166.49 123.1 164.9C124.75 164.3 126.53 162.64 128.18 164.03C129.75 165.35 128.9 167.57 128.52 169.25C127.5 173.8 126.45 178.31 126.14 182.99C125.79 188.28 126.78 193.21 128.85 198.05C131.03 203.13 131.51 208 126.46 211.97C124.51 213.5 124.08 215.86 123.74 218.22C123.46 220.19 123.09 222.17 122.51 224.06C118.85 235.86 120.04 239.26 130.42 246.12C132.6 247.56 135.09 248.61 137.4 251.64C130.97 252.68 125.25 253.87 119.47 254.44C116.68 254.72 114.57 252.94 113.37 250.13C112.55 248.21 110.81 246.29 108.97 248.85C106.57 252.17 106.08 249.61 105.15 248.01C103.46 245.09 103.75 241.34 101.19 237.86C100.23 241.29 100.87 243.8 101.28 246.35C101.51 247.78 101.9 249.75 100.23 250.36C98.3701 251.04 97.2401 249.33 96.3901 247.9C94.2901 244.34 94.3001 240.25 93.7501 236.32C93.4501 234.2 93.3601 232.12 91.2601 230.37C89.2301 234.4 90.6601 238.08 91.1501 241.74C91.3901 243.52 92.0601 245.78 89.6701 246.38C87.3601 246.96 85.8401 245.22 85.3901 243.11C84.0001 236.62 82.8201 230.08 81.5401 223.56C81.2901 222.29 81.4701 220.86 80.0401 219.66C77.9601 222.36 78.7801 225.25 79.1001 228.1C79.3501 230.33 80.3801 233.59 77.7001 234.24C74.6301 234.98 73.4801 231.79 72.5701 229.21C71.2401 225.41 72.1701 221.2 70.4401 217.47C70.1801 216.9 69.8601 216.36 69.2301 215.16C67.4801 217.99 68.4701 220.77 67.6801 223.12C67.3601 224.08 67.2501 225.31 66.2101 225.54C64.8101 225.85 64.2701 224.53 63.7501 223.52C62.4101 220.93 62.5201 218.02 62.0001 215.25C61.4401 212.24 61.2901 209.13 59.7701 206.04C57.7301 208.01 59.3901 210.29 58.0101 212.2C55.4301 211.67 54.8501 209.25 54.0801 207.28C51.0901 199.64 51.3501 191.62 51.6601 183.62C51.7801 180.61 53.3501 179.88 56.0101 181.15C59.7201 182.93 62.3601 185.91 64.9701 188.96C66.2201 190.43 67.2501 192.06 69.8801 190.49C82.4701 182.99 82.5201 183.07 94.3901 181.61C93.9301 179.65 92.3301 179.85 90.9801 179.73C86.6701 179.34 82.3701 178.96 78.0601 178.64C75.6801 178.46 73.4301 177.89 71.5301 176.43C69.4801 174.86 68.8701 172.62 69.3001 170.18C69.7101 167.87 71.8101 167.8 73.5801 167.45C78.5401 166.48 83.4901 167.09 89.3801 167.98C85.8101 164.82 82.1401 164.52 78.7801 163.53C75.9101 162.68 72.9501 162.13 70.0901 161.25C62.3501 158.87 58.1801 152.79 58.7601 144.82C58.8601 143.4 58.5201 141.43 60.5101 141.23C62.1101 141.07 62.1401 143.04 62.8901 144.05C63.6501 145.07 63.3001 146.78 64.9001 147.27C69.5901 139.83 67.6301 130.95 60.1101 126.78C56.9301 125.01 55.4101 122.6 54.3701 119.16C49.6401 103.6 52.5301 89.9099 63.6801 78.0199C67.4901 73.9599 70.3501 69.4199 72.0001 63.9999C73.3301 59.6399 76.6401 56.3699 79.4001 52.8199C81.2401 50.4599 83.4301 48.1799 84.5401 45.4799C87.8101 37.5699 94.6101 35.8799 101.87 35.0399C111.34 33.9299 120.83 34.9999 130.31 35.1199C135.63 35.1899 140.93 35.2399 146.25 34.4799C155.72 33.1299 169.85 42.4499 173.31 52.2099C174.53 55.6499 175.39 59.2299 176.34 62.7599C177.73 67.9099 175.89 72.1599 172.76 76.1899C170.34 79.3099 167.86 81.6299 170.98 86.8899C173.56 91.2499 172.6 97.8899 172.65 103.53C172.74 112.66 173.6 121.84 171.8 130.93C171.55 132.19 171.22 133.61 172.33 134.71C173.71 136.08 176.03 137.32 174.67 139.58C173.05 142.27 170.82 144.63 167.44 145.23C152.78 147.84 140.7 143.1 131.54 131.66C122.82 120.77 122.96 108.67 128.39 96.3399C130.62 91.2799 133.61 86.6899 137.64 82.8299C138.42 82.0799 139.92 81.2799 139.21 80.0399C138.3 78.4599 136.74 79.5899 135.66 80.0399C130.55 82.1899 125.75 84.6499 123.38 90.2699C121.45 94.8599 119.41 95.1599 116.14 91.3399C110.9 85.2199 107.5 77.9399 103.91 70.7999C103.55 70.0799 103.23 69.3299 102.89 68.5999L102.91 68.5799Z" fill="#00A551"/>
<path d="M239.08 180.09C235.17 186.29 235.76 193.35 233.56 199.75C233.42 200.16 233.65 200.73 233.8 201.19C236.16 208.55 234.25 211.8 226.54 213.41C224.24 213.89 221.92 213.99 219.63 213.34C206.98 209.73 194.03 208.44 180.93 207.86C166.53 207.21 168.26 206.39 169.77 194.69C170.12 192 171.91 187.69 168.93 187.18C166.29 186.72 167.57 191.39 166.9 193.72C166.72 194.35 166.69 195.03 166.59 195.69C165.4 203.87 165.14 204.12 157 204.38C154.17 204.47 151.35 204.56 148.52 204.57C139.57 204.6 135.28 201.1 134.54 192.23C133.87 184.11 134.06 175.97 137.09 168.14C138.24 165.17 139.85 163.62 143.21 163.36C149.35 162.89 155.49 162.62 161.64 162.78C184.09 163.36 206.54 162.48 228.99 163.44C246.5 164.19 248.6 166.4 246.42 183.47C246.06 186.27 245.49 189.04 244.84 191.79C244.48 193.32 244.33 195.62 242.12 195.24C240.49 194.96 239.61 193.07 239.51 191.33C239.35 188.51 239.44 185.68 239.37 182.85C239.35 181.92 239.18 181 239.08 180.08V180.09Z" fill="#00A551"/>
<path d="M190.77 112.95C190.83 104.32 197.16 104.69 202.34 103.57C211.91 101.51 221.26 98.23 231.14 97.89C238.29 97.64 246.1 96.68 247.36 108.75C248.25 106.37 248.45 105.82 248.66 105.27C249.25 103.7 248.67 100.95 251.24 101.23C253.2 101.44 254.39 103.5 255.13 105.43C255.25 105.73 255.25 106.09 255.25 106.42C255.13 119.89 255.25 133.37 251.59 146.52C251.27 147.66 250.51 149.58 249.92 149.34C245.28 147.38 242.02 151.07 238.1 151.77C235.45 152.25 234.6 149.73 234.54 147.37C234.47 144.66 234.52 141.95 234.52 137.8C231.61 142.12 231.32 145.83 230.01 149.13C226.84 157.09 224.74 157.59 217.9 157.15C209.47 156.61 200.94 157.27 192.48 157.77C181.35 158.44 170.22 155.6 159.12 157.77C153.7 158.82 148.29 159.42 142.79 159.02C136.32 158.55 132.02 152.5 133.98 146.31C135.4 141.85 138.72 144.01 140.87 145.2C147.38 148.81 154.25 149.79 161.56 149.65C167.59 149.54 172.46 147.16 176.92 143.44C179.85 141 180.23 137.83 179.69 134.38C178.77 128.44 178.36 122.46 178.8 116.47C179.08 112.65 179.51 108.75 182.81 106.08C184.06 105.07 185.33 103.64 187.21 104.31C189.31 105.05 189.53 106.93 189.53 108.84C189.53 109.82 189.53 110.8 189.53 111.79L190.77 112.96V112.95Z" fill="#00A551"/>
<path d="M145.64 225.09C142.17 230.58 142.43 236.74 142.06 242.8C141.96 244.5 142.78 246.87 140.25 247.36C138.32 247.73 136.83 246.32 135.69 244.82C133.63 242.12 133.37 239 133.87 235.78C134.64 230.88 135.49 226 135.89 220.94C133.58 222.85 133.6 225.88 132.63 228.39C131.98 230.07 131.98 231.99 131.52 233.75C131.03 235.61 130.81 238.32 128.11 237.74C125.51 237.18 123.88 234.96 124.43 232.09C125.4 227.03 126.56 222 127.78 217C128.59 213.67 130.64 211.71 134.14 210.76C142.26 208.55 150.35 209.61 158.42 210.55C166.86 211.53 175.28 212.51 183.79 212.23C187.53 212.11 190.99 212.81 194.42 214.36C199.7 216.74 204.94 219.09 211.09 218.85C215.34 218.69 218.24 222.24 218.4 226.77C218.6 232.49 217.38 238.01 215.54 243.4C214.66 245.97 212.62 247.53 210.24 248.36C203.18 250.85 196.08 253.22 188.93 255.42C186.39 256.2 183.51 256.34 181.06 255.21C175.68 252.71 170.09 252.69 164.43 253.26C159.17 253.79 154.72 252.27 150.52 249.05C147.89 247.03 146.61 244.72 146.25 241.58C145.62 236.12 146.15 230.64 145.65 225.1L145.64 225.09Z" fill="#00A551"/>
<path d="M222.95 70.5199C223.13 76.3599 224.97 82.1599 224.11 88.0399C224.09 88.1799 224.22 88.3499 224.31 88.4899C226.7 92.2799 226.74 92.4799 221.95 93.5099C209.89 96.1099 197.69 97.3899 185.34 96.9299C182.21 96.8099 180.01 95.9399 180.94 92.1999C184.12 79.3699 180.5 67.1399 177.5 54.9099C176.01 48.8499 176.39 47.4199 182.56 47.2999C193.52 47.0899 204.4 45.2699 215.39 45.7199C217.64 45.8099 219.69 46.1499 221.33 47.7899C229.95 56.4099 234.33 66.8399 234.45 79.0099C234.46 80.4599 233.95 81.9399 233.53 83.3599C233.19 84.4999 232.49 85.5799 231.22 85.7299C229.59 85.9299 228.81 84.6199 228.4 83.3799C226.96 79.0199 225.67 74.6099 224.33 70.2199L222.94 70.5199H222.95Z" fill="#00A551"/>
</g>
<defs>
<clipPath id="clip0_123_2">
<rect width="292.09" height="291.72" fill="white"/>
</clipPath>
</defs>
</svg>
